# xmcd
#
# Track frame offsets: 
#        150
#        16109
#        28994
#        39670
#        51566
#        68027
#        82326
#        95752
#        109440
#        121307
#        130656
#        144052
#        156499
#
# Disc length: 2274 seconds
#
# Revision: 0
# Processed by: cddbd v1.5.2PL0 Copyright (c) Steve Scherf et al.
# Submitted via: ExactAudioCopy v0.99pb3
#
DISCID=bb08e00d
DTITLE=The Lucky Tomblin Band - Red Hot From Blue Rock
DYEAR=2007
DGENRE=Country
TTITLE0=Honky Tonk Song
TTITLE1=End Of The Road
TTITLE2=Setting The Woods On Fire
TTITLE3=Howlin At The Moon
TTITLE4=Don't Forget To Dip The Girl
TTITLE5=Sundown Blues
TTITLE6=I'll Keep On Loving You
TTITLE7=Good Lookin' No Good
TTITLE8=A Fool Such As I
TTITLE9=Party Doll
TTITLE10=Play One More Song
TTITLE11=Time Changes Everything
TTITLE12=Red Hot
EXTD=
EXTT0=
EXTT1=
EXTT2=
EXTT3=
EXTT4=
EXTT5=
EXTT6=
EXTT7=
EXTT8=
EXTT9=
EXTT10=
EXTT11=
EXTT12=
PLAYORDER=
